# Blender v2.78 (sub 0) OBJ File: 'tomb3.blend'
# www.blender.org
mtllib tomb3.mtl
o Cube_Cube.001
v -0.221028 -0.000000 -0.475000
v -0.177450 0.386480 -0.475000
v -0.221028 -0.000000 -0.525000
v -0.177450 0.386480 -0.525000
v 0.177450 -0.000000 -0.475000
v 0.221028 0.351618 -0.475000
v 0.177450 -0.000000 -0.525000
v 0.221028 0.351618 -0.525000
vn -0.9937 0.1120 0.0000
vn -0.0000 0.0000 -1.0000
vn 0.9924 -0.1230 0.0000
vn 0.0000 0.0000 1.0000
vn 0.0000 -1.0000 0.0000
vn 0.0872 0.9962 0.0000
usemtl None
s off
f 1//1 2//1 4//1 3//1
f 3//2 4//2 8//2 7//2
f 7//3 8//3 6//3 5//3
f 5//4 6//4 2//4 1//4
f 3//5 7//5 5//5 1//5
f 8//6 4//6 2//6 6//6
o Plane_Plane.003
v -0.150302 0.020000 0.074690
v -0.050302 0.050000 0.100709
v -0.186114 0.030000 0.000709
v -0.050302 0.100000 0.000709
v -0.152241 0.030000 0.151016
v -0.272604 0.000000 0.032208
v -0.181119 0.000000 0.235114
v -0.120354 0.020000 0.242587
v -0.165011 0.000000 0.363360
v -0.093589 0.000000 0.381088
v -0.052097 0.040000 0.230269
v 0.008511 0.000000 0.316504
v 0.002429 0.065000 0.195114
v 0.033428 0.060000 0.133825
v 0.064799 0.040000 0.247753
v 0.232783 0.000000 0.155483
v 0.129512 0.040000 0.063725
v 0.171324 0.030000 -0.023508
v 0.068704 0.100000 0.032900
v 0.105437 0.050000 -0.078262
v -0.020242 0.100000 -0.081028
v 0.026026 0.080000 -0.147369
v -0.055423 0.070000 -0.171953
v -0.026022 0.050000 -0.259085
v -0.103985 0.040000 -0.327299
v -0.146418 0.030000 -0.206665
v -0.142561 0.040000 -0.113429
v -0.228901 0.000000 -0.124446
v -0.248552 0.000000 -0.206075
v -0.195670 0.000000 -0.302349
v -0.195670 0.000000 -0.378182
v -0.041451 0.000000 -0.372142
v 0.102009 0.000000 -0.291551
v 0.191944 0.000000 -0.271191
v 0.232783 0.000000 0.256590
v 0.137243 0.000000 0.356014
v 0.219654 0.000000 0.312253
v 0.161690 0.025000 0.301664
v 0.092722 0.000000 0.332776
v 0.286019 0.000000 -0.044523
vn -0.4187 0.8123 0.4061
vn -0.3430 0.8944 0.2869
vn -0.4029 0.8970 0.1817
vn -0.3291 0.9195 0.2150
vn -0.1192 0.9817 0.1487
vn -0.0372 0.9880 0.1499
vn -0.2455 0.9516 0.1849
vn -0.2688 0.9606 0.0704
vn -0.0961 0.8755 0.4736
vn -0.3804 0.9225 0.0659
vn -0.0719 0.9905 -0.1172
vn -0.2729 0.8605 0.4302
vn 0.2779 0.9563 0.0914
vn 0.2760 0.9553 0.1058
vn 0.6283 0.7475 0.2155
vn 0.4918 0.7368 0.4639
vn -0.0917 0.9363 0.3390
vn 0.3601 0.8896 -0.2811
vn 0.0000 1.0000 0.0000
vn -0.0250 0.9522 -0.3045
vn -0.3963 0.9065 -0.1457
vn -0.4537 0.8802 -0.1395
vn -0.1152 0.9845 -0.1319
vn -0.3168 0.9477 0.0398
vn 0.3117 0.9468 0.0804
vn -0.0469 0.8796 0.4734
vn 0.1899 0.9348 0.3002
vn 0.3241 0.9448 0.0471
vn 0.4561 0.8583 -0.2353
vn 0.3700 0.9288 -0.0220
vn -0.0471 0.9700 -0.2385
vn 0.0547 0.9771 -0.2058
vn -0.3830 0.9219 -0.0583
vn -0.3741 0.9236 -0.0836
vn -0.3578 0.9322 -0.0548
vn -0.2532 0.9584 -0.1320
vn -0.2380 0.9406 0.2423
vn -0.4105 0.9083 -0.0804
vn -0.2808 0.9574 0.0676
vn -0.2793 0.9479 -0.1534
vn -0.4150 0.9071 -0.0708
vn -0.3999 0.9166 0.0000
vn 0.0253 0.7633 -0.6456
vn 0.2558 0.8707 -0.4200
vn 0.2358 0.8764 -0.4198
vn 0.2584 0.8961 -0.3610
vn 0.1000 0.8915 -0.4419
vn -0.4110 0.9084 -0.0772
vn -0.3584 0.9282 -0.1000
vn 0.3974 0.9157 -0.0591
vn 0.3524 0.9321 -0.0836
vn 0.2316 0.9728 0.0000
vn 0.2648 0.8253 0.4987
vn 0.3806 0.9204 0.0898
vn 0.2366 0.9586 -0.1585
vn -0.1156 0.8836 0.4537
vn -0.1793 0.9219 0.3434
vn -0.0864 0.8902 0.4472
vn 0.2351 0.9671 -0.0976
vn 0.2645 0.9618 0.0704
vn 0.0000 -1.0000 0.0000
usemtl None
s off
f 11//7 10//7 12//7
f 11//8 9//8 10//8
f 14//9 15//9 13//9
f 15//10 16//10 13//10
f 13//11 16//11 10//11
f 17//12 18//12 16//12
f 18//13 19//13 16//13
f 16//14 19//14 10//14
f 20//15 21//15 19//15
f 19//16 21//16 10//16
f 21//17 22//17 10//17
f 10//18 22//18 12//18
f 23//19 24//19 22//19
f 24//20 25//20 22//20
f 26//21 27//21 25//21
f 22//22 25//22 27//22
f 22//23 27//23 12//23
f 28//24 29//24 27//24
f 27//25 29//25 12//25
f 30//26 31//26 29//26
f 29//27 31//27 12//27
f 11//28 12//28 31//28
f 13//29 9//29 14//29
f 16//30 15//30 17//30
f 22//31 21//31 23//31
f 21//32 20//32 23//32
f 19//33 18//33 20//33
f 25//34 24//34 26//34
f 27//35 26//35 28//35
f 29//36 28//36 30//36
f 31//37 30//37 32//37
f 32//38 33//38 31//38
f 33//39 34//39 31//39
f 35//40 31//40 34//40
f 31//41 35//41 11//41
f 10//42 9//42 13//42
f 9//43 11//43 14//43
f 35//44 34//44 36//44
f 36//45 34//45 37//45
f 38//46 37//46 34//46
f 34//47 33//47 38//47
f 38//48 33//48 39//48
f 40//49 39//49 33//49
f 33//50 32//50 40//50
f 40//51 32//51 41//51
f 32//52 30//52 41//52
f 41//53 30//53 42//53
f 35//54 36//54 11//54
f 14//55 11//55 36//55
f 30//56 28//56 42//56
f 28//57 26//57 42//57
f 24//58 23//58 43//58
f 44//59 45//59 46//59
f 45//60 43//60 46//60
f 43//61 23//61 46//61
f 46//62 23//62 47//62
f 46//63 47//63 44//63
f 23//64 20//64 47//64
f 42//65 26//65 48//65
f 26//66 24//66 48//66
f 14//67 36//67 37//67 38//67 39//67 40//67 41//67 42//67 48//67 24//67 43//67 45//67 44//67 47//67 20//67 18//67 17//67 15//67
