# Blender v2.78 (sub 0) OBJ File: 'tomb2.blend'
# www.blender.org
mtllib tomb2.mtl
o Cube.005_Cube.008
v -1.000000 0.700000 -0.350000
v -0.875000 0.700000 -0.350000
v -1.000000 0.700000 0.350000
v -0.875000 0.700000 0.350000
v -1.000000 0.768282 0.343275
v -0.875000 0.768282 0.343275
v -1.000000 0.833939 0.323358
v -0.875000 0.833939 0.323358
v -1.000000 0.894450 0.291014
v -0.875000 0.894450 0.291014
v -1.000000 0.947487 0.247487
v -0.875000 0.947487 0.247487
v -1.000000 0.991014 0.194449
v -0.875000 0.991014 0.194449
v -1.000000 1.023358 0.133939
v -0.875000 1.023358 0.133939
v -1.000000 1.043275 0.068281
v -0.875000 1.043275 0.068281
v -1.000000 1.050000 -0.000000
v -0.875000 1.050000 -0.000000
v -1.000000 1.043275 -0.068282
v -0.875000 1.043275 -0.068282
v -1.000000 1.023358 -0.133940
v -0.875000 1.023358 -0.133940
v -1.000000 0.991014 -0.194450
v -0.875000 0.991014 -0.194450
v -1.000000 0.947487 -0.247488
v -0.875000 0.947487 -0.247488
v -1.000000 0.894449 -0.291015
v -0.875000 0.894449 -0.291015
v -1.000000 0.833939 -0.323358
v -0.875000 0.833939 -0.323358
v -1.000000 0.768281 -0.343275
v -0.875000 0.768281 -0.343275
v -1.000000 -0.000000 0.350000
v -1.000000 0.700000 0.350000
v -1.000000 -0.000000 -0.350000
v -1.000000 0.700000 -0.350000
v -0.875000 -0.000000 0.350000
v -0.875000 0.700000 0.350000
v -0.875000 -0.000000 -0.350000
v -0.875000 0.700000 -0.350000
v -0.850000 -0.000000 0.350000
v -0.850000 0.240000 0.350000
v -0.850000 -0.000000 -0.350000
v -0.850000 0.240000 -0.350000
v 0.850000 0.000000 0.350000
v 0.850000 0.240000 0.350000
v 0.850000 0.000000 -0.350000
v 0.850000 0.240000 -0.350000
v 1.000000 0.000000 -0.500000
v 1.000000 0.000000 0.500000
v -1.000000 -0.000000 0.500000
v -0.999999 -0.000000 -0.500000
v 1.000000 0.200000 -0.500000
v 0.999999 0.200000 0.500000
v -1.000000 0.200000 0.500000
v -0.999999 0.200000 -0.500000
v 0.875000 0.000000 0.525000
v 0.875000 0.225000 0.525000
v 0.875000 0.000000 0.375000
v 0.875000 0.225000 0.375000
v 1.025000 0.000000 0.525000
v 1.025000 0.225000 0.525000
v 1.025000 0.000000 0.375000
v 1.025000 0.225000 0.375000
v 0.900000 0.002500 0.500000
v 0.900000 0.242500 0.500000
v 0.900000 0.002500 0.400000
v 0.900000 0.242500 0.400000
v 1.000000 0.002500 0.500000
v 1.000000 0.242500 0.500000
v 1.000000 0.002500 0.400000
v 1.000000 0.242500 0.400000
v 0.875000 0.000000 -0.375000
v 0.875000 0.225000 -0.375000
v 0.875000 0.000000 -0.525000
v 0.875000 0.225000 -0.525000
v 1.025000 0.000000 -0.375000
v 1.025000 0.225000 -0.375000
v 1.025000 0.000000 -0.525000
v 1.025000 0.225000 -0.525000
v 0.900000 0.002500 -0.400000
v 0.900000 0.242500 -0.400000
v 0.900000 0.002500 -0.500000
v 0.900000 0.242500 -0.500000
v 1.000000 0.002500 -0.400000
v 1.000000 0.242500 -0.400000
v 1.000000 0.002500 -0.500000
v 1.000000 0.242500 -0.500000
v 0.875000 0.000000 0.525000
v 0.875000 0.225000 0.525000
v 0.875000 0.000000 0.375000
v 0.875000 0.225000 0.375000
v 1.025000 0.000000 0.525000
v 1.025000 0.225000 0.525000
v 1.025000 0.000000 0.375000
v 1.025000 0.225000 0.375000
v 0.900000 0.002500 0.500000
v 0.900000 0.242500 0.500000
v 0.900000 0.002500 0.400000
v 0.900000 0.242500 0.400000
v 1.000000 0.002500 0.500000
v 1.000000 0.242500 0.500000
v 1.000000 0.002500 0.400000
v 1.000000 0.242500 0.400000
v -1.025000 -0.000000 0.525000
v -1.025000 0.225000 0.525000
v -1.025000 -0.000000 0.375000
v -1.025000 0.225000 0.375000
v -0.875000 -0.000000 0.525000
v -0.875000 0.225000 0.525000
v -0.875000 -0.000000 0.375000
v -0.875000 0.225000 0.375000
v -1.000000 0.002500 0.500000
v -1.000000 0.242500 0.500000
v -1.000000 0.002500 0.400000
v -1.000000 0.242500 0.400000
v -0.900000 0.002500 0.500000
v -0.900000 0.242500 0.500000
v -0.900000 0.002500 0.400000
v -0.900000 0.242500 0.400000
v -1.025000 -0.000000 -0.375000
v -1.025000 0.225000 -0.375000
v -1.025000 -0.000000 -0.525000
v -1.025000 0.225000 -0.525000
v -0.875000 -0.000000 -0.375000
v -0.875000 0.225000 -0.375000
v -0.875000 -0.000000 -0.525000
v -0.875000 0.225000 -0.525000
v -1.000000 0.002500 -0.400000
v -1.000000 0.242500 -0.400000
v -1.000000 0.002500 -0.500000
v -1.000000 0.242500 -0.500000
v -0.900000 0.002500 -0.400000
v -0.900000 0.242500 -0.400000
v -0.900000 0.002500 -0.500000
v -0.900000 0.242500 -0.500000
v -1.025000 -0.000000 0.525000
v -1.025000 0.225000 0.525000
v -1.025000 -0.000000 0.375000
v -1.025000 0.225000 0.375000
v -0.875000 -0.000000 0.525000
v -0.875000 0.225000 0.525000
v -0.875000 -0.000000 0.375000
v -0.875000 0.225000 0.375000
v -1.000000 0.002500 0.500000
v -1.000000 0.242500 0.500000
v -1.000000 0.002500 0.400000
v -1.000000 0.242500 0.400000
v -0.900000 0.002500 0.500000
v -0.900000 0.242500 0.500000
v -0.900000 0.002500 0.400000
v -0.900000 0.242500 0.400000
v -0.980000 0.683333 -0.325000
v -0.855000 0.683333 -0.325000
v -0.980000 0.683333 0.325000
v -0.855000 0.683333 0.325000
v -0.980000 0.748364 0.318755
v -0.855000 0.748364 0.318755
v -0.980000 0.810895 0.300261
v -0.855000 0.810895 0.300261
v -0.980000 0.868524 0.270228
v -0.855000 0.868524 0.270228
v -0.980000 0.919036 0.229810
v -0.855000 0.919036 0.229810
v -0.980000 0.960490 0.180560
v -0.855000 0.960490 0.180560
v -0.980000 0.991293 0.124372
v -0.855000 0.991293 0.124372
v -0.980000 1.010262 0.063404
v -0.855000 1.010262 0.063404
v -0.980000 1.016667 -0.000000
v -0.855000 1.016667 -0.000000
v -0.980000 1.010262 -0.063405
v -0.855000 1.010262 -0.063405
v -0.980000 0.991293 -0.124372
v -0.855000 0.991293 -0.124372
v -0.980000 0.960490 -0.180561
v -0.855000 0.960490 -0.180561
v -0.980000 0.919035 -0.229810
v -0.855000 0.919035 -0.229810
v -0.980000 0.868523 -0.270228
v -0.855000 0.868523 -0.270228
v -0.980000 0.810894 -0.300261
v -0.855000 0.810894 -0.300261
v -0.980000 0.748363 -0.318755
v -0.855000 0.748363 -0.318755
v -0.980000 0.016667 0.325000
v -0.980000 0.683333 0.325000
v -0.980000 0.016667 -0.325000
v -0.980000 0.683333 -0.325000
v -0.855000 0.016667 0.325000
v -0.855000 0.683333 0.325000
v -0.855000 0.016667 -0.325000
v -0.855000 0.683333 -0.325000
vn 0.0000 0.2903 0.9569
vn 0.0000 0.4714 0.8819
vn 0.0000 0.6344 0.7730
vn 0.0000 0.7730 0.6344
vn 0.0000 0.8819 0.4714
vn 0.0000 0.9569 0.2903
vn 0.0000 0.9952 0.0980
vn 0.0000 0.9952 -0.0980
vn 0.0000 0.9569 -0.2903
vn 0.0000 0.8819 -0.4714
vn 0.0000 0.7730 -0.6344
vn 0.0000 0.6344 -0.7730
vn 0.0000 0.4714 -0.8819
vn 0.0000 0.2903 -0.9569
vn 0.0000 0.0980 0.9952
vn 0.0000 0.0980 -0.9952
vn 0.0000 -1.0000 0.0000
vn -1.0000 -0.0000 0.0000
vn 1.0000 0.0000 0.0000
vn 0.0000 0.0000 -1.0000
vn 0.0000 0.0000 1.0000
vn 0.0000 1.0000 0.0000
vn 0.0000 0.2836 0.9589
vn 0.0000 0.4622 0.8868
vn 0.0000 0.6248 0.7808
vn 0.0000 0.7651 0.6440
vn 0.0000 0.8769 0.4807
vn 0.0000 0.9549 0.2971
vn 0.0000 0.9949 0.1005
vn 0.0000 0.9949 -0.1005
vn 0.0000 0.9549 -0.2971
vn 0.0000 0.8769 -0.4807
vn 0.0000 0.7651 -0.6440
vn 0.0000 0.6248 -0.7808
vn 0.0000 0.4622 -0.8868
vn 0.0000 0.2836 -0.9589
vn 0.0000 0.0956 0.9954
vn 0.0000 0.0956 -0.9954
usemtl Material
s off
f 5//1 6//1 8//1 7//1
f 7//2 8//2 10//2 9//2
f 9//3 10//3 12//3 11//3
f 11//4 12//4 14//4 13//4
f 13//5 14//5 16//5 15//5
f 15//6 16//6 18//6 17//6
f 17//7 18//7 20//7 19//7
f 19//8 20//8 22//8 21//8
f 21//9 22//9 24//9 23//9
f 23//10 24//10 26//10 25//10
f 25//11 26//11 28//11 27//11
f 27//12 28//12 30//12 29//12
f 29//13 30//13 32//13 31//13
f 31//14 32//14 34//14 33//14
f 3//15 4//15 6//15 5//15
f 2//16 1//16 33//16 34//16
f 4//17 3//17 1//17 2//17
f 3//18 5//18 7//18 9//18 11//18 13//18 15//18 17//18 19//18 21//18 23//18 25//18 27//18 29//18 31//18 33//18 1//18
f 6//19 4//19 2//19 34//19 32//19 30//19 28//19 26//19 24//19 22//19 20//19 18//19 16//19 14//19 12//19 10//19 8//19
f 35//18 36//18 38//18 37//18
f 37//20 38//20 42//20 41//20
f 41//19 42//19 40//19 39//19
f 39//21 40//21 36//21 35//21
f 37//17 41//17 39//17 35//17
f 42//22 38//22 36//22 40//22
f 43//18 44//18 46//18 45//18
f 45//20 46//20 50//20 49//20
f 49//19 50//19 48//19 47//19
f 47//21 48//21 44//21 43//21
f 45//17 49//17 47//17 43//17
f 50//22 46//22 44//22 48//22
f 51//17 52//17 53//17 54//17
f 55//22 58//22 57//22 56//22
f 51//19 55//19 56//19 52//19
f 52//21 56//21 57//21 53//21
f 53//18 57//18 58//18 54//18
f 55//20 51//20 54//20 58//20
f 59//18 60//18 62//18 61//18
f 61//20 62//20 66//20 65//20
f 65//19 66//19 64//19 63//19
f 63//21 64//21 60//21 59//21
f 61//17 65//17 63//17 59//17
f 66//22 62//22 60//22 64//22
f 67//18 68//18 70//18 69//18
f 69//20 70//20 74//20 73//20
f 73//19 74//19 72//19 71//19
f 71//21 72//21 68//21 67//21
f 69//17 73//17 71//17 67//17
f 74//22 70//22 68//22 72//22
f 75//18 76//18 78//18 77//18
f 77//20 78//20 82//20 81//20
f 81//19 82//19 80//19 79//19
f 79//21 80//21 76//21 75//21
f 77//17 81//17 79//17 75//17
f 82//22 78//22 76//22 80//22
f 83//18 84//18 86//18 85//18
f 85//20 86//20 90//20 89//20
f 89//19 90//19 88//19 87//19
f 87//21 88//21 84//21 83//21
f 85//17 89//17 87//17 83//17
f 90//22 86//22 84//22 88//22
f 91//18 92//18 94//18 93//18
f 93//20 94//20 98//20 97//20
f 97//19 98//19 96//19 95//19
f 95//21 96//21 92//21 91//21
f 93//17 97//17 95//17 91//17
f 98//22 94//22 92//22 96//22
f 99//18 100//18 102//18 101//18
f 101//20 102//20 106//20 105//20
f 105//19 106//19 104//19 103//19
f 103//21 104//21 100//21 99//21
f 101//17 105//17 103//17 99//17
f 106//22 102//22 100//22 104//22
f 107//18 108//18 110//18 109//18
f 109//20 110//20 114//20 113//20
f 113//19 114//19 112//19 111//19
f 111//21 112//21 108//21 107//21
f 109//17 113//17 111//17 107//17
f 114//22 110//22 108//22 112//22
f 115//18 116//18 118//18 117//18
f 117//20 118//20 122//20 121//20
f 121//19 122//19 120//19 119//19
f 119//21 120//21 116//21 115//21
f 117//17 121//17 119//17 115//17
f 122//22 118//22 116//22 120//22
f 123//18 124//18 126//18 125//18
f 125//20 126//20 130//20 129//20
f 129//19 130//19 128//19 127//19
f 127//21 128//21 124//21 123//21
f 125//17 129//17 127//17 123//17
f 130//22 126//22 124//22 128//22
f 131//18 132//18 134//18 133//18
f 133//20 134//20 138//20 137//20
f 137//19 138//19 136//19 135//19
f 135//21 136//21 132//21 131//21
f 133//17 137//17 135//17 131//17
f 138//22 134//22 132//22 136//22
f 139//18 140//18 142//18 141//18
f 141//20 142//20 146//20 145//20
f 145//19 146//19 144//19 143//19
f 143//21 144//21 140//21 139//21
f 141//17 145//17 143//17 139//17
f 146//22 142//22 140//22 144//22
f 147//18 148//18 150//18 149//18
f 149//20 150//20 154//20 153//20
f 153//19 154//19 152//19 151//19
f 151//21 152//21 148//21 147//21
f 149//17 153//17 151//17 147//17
f 154//22 150//22 148//22 152//22
f 159//23 160//23 162//23 161//23
f 161//24 162//24 164//24 163//24
f 163//25 164//25 166//25 165//25
f 165//26 166//26 168//26 167//26
f 167//27 168//27 170//27 169//27
f 169//28 170//28 172//28 171//28
f 171//29 172//29 174//29 173//29
f 173//30 174//30 176//30 175//30
f 175//31 176//31 178//31 177//31
f 177//32 178//32 180//32 179//32
f 179//33 180//33 182//33 181//33
f 181//34 182//34 184//34 183//34
f 183//35 184//35 186//35 185//35
f 185//36 186//36 188//36 187//36
f 157//37 158//37 160//37 159//37
f 156//38 155//38 187//38 188//38
f 158//17 157//17 155//17 156//17
f 157//18 159//18 161//18 163//18 165//18 167//18 169//18 171//18 173//18 175//18 177//18 179//18 181//18 183//18 185//18 187//18 155//18
f 160//19 158//19 156//19 188//19 186//19 184//19 182//19 180//19 178//19 176//19 174//19 172//19 170//19 168//19 166//19 164//19 162//19
f 189//18 190//18 192//18 191//18
f 191//20 192//20 196//20 195//20
f 195//19 196//19 194//19 193//19
f 193//21 194//21 190//21 189//21
f 191//17 195//17 193//17 189//17
f 196//22 192//22 190//22 194//22
